<?xml version="1.0" encoding="UTF-8"?>
<svg width="218px" height="218px" viewBox="0 0 218 218" version="1.1" xmlns="http://www.w3.org/2000/svg" xmlns:xlink="http://www.w3.org/1999/xlink">
    <!-- Generator: Sketch 41 (35326) - http://www.bohemiancoding.com/sketch -->
    <title>finger</title>
    <desc>Created with Sketch.</desc>
    <defs></defs>
    <g id="Symbols" stroke="none" stroke-width="1" fill="none" fill-rule="evenodd">
        <g id="finger" stroke="#FF0000" stroke-width="4">
            <g id="Group-2" transform="translate(22.000000, 25.000000)">
                <path d="M87.6455078,137.430176 C88.9243164,140.250488 57.1308594,140.161133 57.1308594,140.161133 C57.1308594,140.161133 47.6267112,139.921272 45.1386719,144.932129 C42.6506326,149.942985 43.3974609,152.046875 43.9179688,154.208984 C44.4384766,156.371094 44.0986328,157.816895 48.1689453,160.62207 C52.2392578,163.427246 82.0986328,162.633789 89.8691406,164.368164 C105.585302,167.876006 106.716091,168.239258 119.555664,168.239258 C130.833984,168.239258 134.064025,166.982123 137.50293,165.793457 C146.381348,162.724609 170.168945,141.460938 172.568848,125.276855 C174.96875,109.092773 167.144531,98.980957 167.144531,98.980957 C167.144531,98.980957 132.217773,55.8984375 119.555664,59.8242188 C106.893555,63.75 113.889648,73.1884766 113.280762,73.8510742 C112.671875,74.5136719 105.075882,66.7885742 99.2063982,69.9140625 C97.2742003,70.9429539 96.9492188,71.1191406 95.5058594,73.2900391 C93.37329,76.4975504 95.1266461,81.655157 94.7280273,82.597168 C94.1337891,84.0014648 85.5219727,75.5361328 79.597168,81.5419922 C73.6723633,87.5478516 78.7626953,95.7827148 77.3242188,96.9614258 C75.8857422,98.1401367 47.3538738,65.8396332 42.84375,62.7177734 C38.3336262,59.5959137 31.1171875,61.4365234 29.4833984,63.7294922 C27.8496094,66.0224609 26.3569336,70.9111328 27.8496094,76.5986328 C29.3422852,82.2861328 86.3666992,134.609863 87.6455078,137.430176 Z" id="Path-2"></path>
                <ellipse id="Oval" cx="15" cy="15.5" rx="15" ry="15.5"></ellipse>
                <ellipse id="Oval-Copy" cx="80" cy="15.5" rx="15" ry="15.5"></ellipse>
                <ellipse id="Oval-Copy-2" cx="144" cy="15.5" rx="15" ry="15.5"></ellipse>
            </g>
        </g>
    </g>
</svg>