<?xml version="1.0" encoding="UTF-8"?>
<svg width="218px" height="218px" viewBox="0 0 218 218" version="1.1" xmlns="http://www.w3.org/2000/svg" xmlns:xlink="http://www.w3.org/1999/xlink">
    <!-- Generator: Sketch 41 (35326) - http://www.bohemiancoding.com/sketch -->
    <title>finger</title>
    <desc>Created with Sketch.</desc>
    <defs></defs>
    <g id="Symbols" stroke="none" stroke-width="1" fill="none" fill-rule="evenodd">
        <g id="finger" stroke="#FF0000" stroke-width="4">
            <g id="Group-2" transform="translate(11.000000, 13.000000)">
                <path d="M99.7345434,156.133691 C101.189739,159.337833 65.0109779,159.236317 65.0109779,159.236317 C65.0109779,159.236317 54.1959127,158.963812 51.3646956,164.65662 C48.5334784,170.349427 49.3833176,172.739645 49.9756196,175.196006 C50.5679216,177.652367 50.1812029,179.294933 54.8129378,182.481879 C59.4446727,185.668824 93.4225822,184.767382 102.264884,186.737796 C120.148792,190.723037 121.435552,191.135725 136.0461,191.135725 C148.880051,191.135725 152.555614,189.707501 156.468851,188.357064 C166.571878,184.870562 193.640524,160.713018 196.371447,142.326368 C199.102371,123.939719 190.198949,112.451738 190.198949,112.451738 C190.198949,112.451738 150.454708,63.5059172 136.0461,67.9659763 C121.637493,72.4260355 129.598565,83.1490385 128.905694,83.9018121 C128.212823,84.6545858 119.569108,75.8781435 112.890039,79.4289941 C110.691331,80.5979122 110.321525,80.7980769 108.679081,83.2644231 C106.252364,86.9084596 108.247563,92.767989 107.793962,93.8382027 C107.11776,95.4336169 97.3181068,85.8161982 90.5760877,92.6394231 C83.8340686,99.4626479 89.6265154,108.818232 87.9896282,110.157359 C86.3527411,111.496487 53.8854426,74.8000567 48.7532328,71.2533284 C43.6210229,67.7066001 35.4092134,69.7977071 33.5500741,72.4027367 C31.6909348,75.0077663 29.9923727,80.5617604 31.6909348,87.0232988 C33.3894969,93.4848373 98.2793474,152.929549 99.7345434,156.133691 Z" id="Path-2"></path>
                <ellipse id="Oval" cx="17.0689655" cy="17.6094675" rx="17.0689655" ry="17.6094675"></ellipse>
                <ellipse id="Oval-Copy" cx="91.0344828" cy="17.6094675" rx="17.0689655" ry="17.6094675"></ellipse>
                <ellipse id="Oval-Copy-2" cx="163.862069" cy="17.6094675" rx="17.0689655" ry="17.6094675"></ellipse>
            </g>
        </g>
    </g>
</svg>